<svg xmlns="http://www.w3.org/2000/svg" viewBox="0 0 64 64">
  <defs>
    <linearGradient id="bg" x1="8" y1="6" x2="56" y2="58" gradientUnits="userSpaceOnUse">
      <stop offset="0" stop-color="#0f172a" />
      <stop offset="1" stop-color="#0f766e" />
    </linearGradient>
    <linearGradient id="accent" x1="18" y1="14" x2="48" y2="48" gradientUnits="userSpaceOnUse">
      <stop offset="0" stop-color="#f8fafc" />
      <stop offset="1" stop-color="#ccfbf1" />
    </linearGradient>
  </defs>
  <rect width="64" height="64" rx="18" fill="url(#bg)" />
  <path
    d="M18 22.5c0-5.8 4.8-10.5 11.3-10.5 3.9 0 7.1 1.4 9.4 3.9l-4.3 4.1c-1.4-1.4-2.9-2.1-4.9-2.1-3.1 0-5.2 2-5.2 4.4 0 1.3.5 2.4 1.5 3.2 1.1.9 2.6 1.4 4.5 1.8 3.1.6 5.6 1.4 7.4 2.8 2.1 1.6 3.2 4.1 3.2 7.1 0 6.5-5 10.9-12.3 10.9-5 0-8.9-1.6-11.8-4.8l4.2-4.2c2 2 4.5 3.1 7.3 3.1 3.5 0 5.8-1.7 5.8-4.4 0-1.4-.5-2.6-1.5-3.4-.9-.8-2.1-1.3-4.3-1.7-3.3-.6-5.8-1.6-7.6-3.1-1.8-1.6-2.7-4-2.7-7.1Z"
    fill="url(#accent)"
  />
  <path
    d="M47.2 33.1v4.1c0 6.9-4.3 10.9-11 10.9-5.1 0-8.8-2.2-10.7-6l5.4-2.8c1.1 2 2.8 3 5 3 3.2 0 5-1.8 5-5v-.3h-5.2v-4.9Z"
    fill="#99f6e4"
  />
</svg>
